<?xml version="1.0" ?><svg data-name="Слой 1" id="Слой_1" viewBox="0 0 32 32" xmlns="http://www.w3.org/2000/svg"><path d="M16.2415,3.66a.4687.4687,0,0,0-.4707-.001,7.8591,7.8591,0,0,0-.248,13.48v1.9346a.4707.4707,0,1,0,.9414,0V17.14a7.8585,7.8585,0,0,0-.2227-13.48Zm.2227,12.3393V8.8655a.4707.4707,0,0,0-.9414,0v1.3028L14.7279,8.949a.47.47,0,1,0-.7871.5137l1.582,2.4268v4.1084A6.9179,6.9179,0,0,1,16.0062,4.616a6.9178,6.9178,0,0,1,.458,11.3833Z"/><path d="M23.1429,22.3367l-1.4072.7266a6.5083,6.5083,0,0,1-.8535.3589,2.3256,2.3256,0,0,0-2.31-2.1206,4.9419,4.9419,0,0,1-2.6123-.7461,5.8782,5.8782,0,0,0-3.1084-.8887H10.658A2.3982,2.3982,0,0,0,6.14,20.7957v5.2022a2.3986,2.3986,0,0,0,4.5332,1.101.4585.4585,0,0,0,.1347.0274h2.085A6.1906,6.1906,0,0,1,15.25,27.59l.4405.18a7.1264,7.1264,0,0,0,6.3046-.4463l2.9434-1.7255a1.8624,1.8624,0,0,0-1.7959-3.2618ZM10.0111,25.9979a1.4649,1.4649,0,1,1-2.93,0V20.7957a1.4649,1.4649,0,1,1,2.93,0Zm14.4521-1.211-2.9443,1.7256a6.2491,6.2491,0,0,1-5.4717.3877l-.4394-.1807a7.1418,7.1418,0,0,0-2.7149-.5336H10.9334c.0049-.063.0191-.1236.0191-.188V20.7957c0-.0644-.0142-.125-.0191-.1885h1.9185a4.9431,4.9431,0,0,1,2.6123.7471,5.8772,5.8772,0,0,0,3.1084.8877,1.3914,1.3914,0,0,1,1.39,1.39c0,.0113.0059.021.0064.0323a6.55,6.55,0,0,1-1.2456.1313H17.6468a8.4224,8.4224,0,0,1-2.6592-.43.47.47,0,0,0-.2968.8926,9.3534,9.3534,0,0,0,2.956.4775H18.723a7.5341,7.5341,0,0,0,3.4443-.8369l1.4073-.7265a.9216.9216,0,0,1,.8886,1.6142Z"/></svg>