<?xml version="1.0" encoding="iso-8859-1"?>
<!-- Generator: Adobe Illustrator 19.1.0, SVG Export Plug-In . SVG Version: 6.00 Build 0)  -->
<svg version="1.1" id="Capa_1" xmlns="http://www.w3.org/2000/svg" xmlns:xlink="http://www.w3.org/1999/xlink" x="0px" y="0px"
	 viewBox="0 0 495.036 495.036" style="enable-background:new 0 0 495.036 495.036;" xml:space="preserve">
<g>
	<g>
		<path style="fill:#231F20;" d="M387.281,445.715H105.232c-5.047,0-9.123-4.094-9.123-9.123l-0.124-163.576L8.057,226.767
			c-3.882-2.047-6.688-5.629-7.676-9.829c-1.006-4.341,0-8.858,2.788-12.387L105.655,74.308c0.441-0.547,1.482-1.57,2.029-2.012
			c9.811-13.817,28.727-22.975,49.143-22.975h28.657c4.376,0,8.152,3.106,8.964,7.411c4.87,25.392,27.174,43.832,53.061,43.832
			s48.208-18.422,53.078-43.832c0.829-4.288,4.588-7.411,8.964-7.411h27.898c18.546,0,35.238,7.464,46.267,20.575
			c2.223,1.006,4.164,2.506,5.664,4.394l102.504,130.261c2.77,3.529,3.776,8.046,2.77,12.387c-0.953,4.147-3.759,7.746-7.676,9.829
			l-90.47,47.573v157.294c0,0.159-0.106,2.453-0.124,2.612l0.018,2.329C396.421,441.621,392.328,445.715,387.281,445.715z
			 M114.249,427.452h263.909l0.106-158.617c0-3.388,1.888-6.511,4.87-8.082l91.758-48.261l-99.857-126.89
			c-2.294-0.388-2.664-0.529-4.059-2.4c-7.499-9.935-19.71-15.616-33.527-15.616H316.68c-9.14,30.104-37.109,51.243-69.171,51.243
			c-32.045,0-60.031-21.14-69.154-51.243h-21.528c-14.628,0-28.004,6.37-35.821,17.046c-0.476,0.635-1.288,1.447-1.923,1.941
			l-98.94,125.92l89.217,46.938c3,1.588,4.87,4.694,4.87,8.082v159.941H114.249z"/>
		<path style="fill:#231F20;" d="M105.214,281.239L105.214,281.239c-4.976,0-9.035-4.076-9.035-9.035v-55.743
			c0-4.976,4.059-9.035,9.035-9.035l0,0c4.976,0,9.035,4.059,9.035,9.035v55.743C114.249,277.163,110.173,281.239,105.214,281.239z"
			/>
		<path style="fill:#231F20;" d="M353.772,391.948L353.772,391.948c0,4.976-4.059,9.035-9.035,9.035H148.87
			c-4.976,0-9.035-4.059-9.035-9.035l0,0c0-4.976,4.059-9.035,9.035-9.035h195.868C349.713,382.914,353.772,386.972,353.772,391.948
			z"/>
		<path style="fill:#231F20;" d="M386.752,281.239L386.752,281.239c-4.976,0-9.035-4.076-9.035-9.035v-55.743
			c0-4.976,4.059-9.035,9.035-9.035l0,0c4.976,0,9.035,4.059,9.035,9.035v55.743C395.786,277.163,391.728,281.239,386.752,281.239z"
			/>
		<path style="fill:#231F20;" d="M246.75,162.96c-2.929,0-5.664-0.176-8.135-0.459c-37.885-4.27-71.642-36.721-78.259-63.189
			c-1.218-4.906,1.747-9.864,6.652-11.082c4.87-1.235,9.846,1.765,11.064,6.652c4.447,17.805,31.039,45.914,62.589,49.479
			c28.233,3.335,53.167-14.558,71.836-51.384c2.276-4.482,7.764-6.282,12.264-4.023c4.5,2.276,6.3,7.782,4.023,12.264
			C302.493,153.061,268.684,162.96,246.75,162.96z"/>
	</g>
	<g>
	</g>
	<g>
	</g>
	<g>
	</g>
	<g>
	</g>
	<g>
	</g>
	<g>
	</g>
	<g>
	</g>
	<g>
	</g>
	<g>
	</g>
	<g>
	</g>
	<g>
	</g>
	<g>
	</g>
	<g>
	</g>
	<g>
	</g>
	<g>
	</g>
</g>
<g>
</g>
<g>
</g>
<g>
</g>
<g>
</g>
<g>
</g>
<g>
</g>
<g>
</g>
<g>
</g>
<g>
</g>
<g>
</g>
<g>
</g>
<g>
</g>
<g>
</g>
<g>
</g>
<g>
</g>
</svg>
